<svg id="visual" viewBox="0 0 900 600" width="900" height="600" xmlns="http://www.w3.org/2000/svg" xmlns:xlink="http://www.w3.org/1999/xlink" version="1.1"><rect x="0" y="0" width="900" height="600" fill="#FFFFFF"></rect><path d="M0 504L9.3 511.8C18.7 519.7 37.3 535.3 56.2 540.8C75 546.3 94 541.7 112.8 531.2C131.7 520.7 150.3 504.3 169 493.2C187.7 482 206.3 476 225 473C243.7 470 262.3 470 281.2 478.7C300 487.3 319 504.7 337.8 504.3C356.7 504 375.3 486 394 478.2C412.7 470.3 431.3 472.7 450 481.3C468.7 490 487.3 505 506.2 512.8C525 520.7 544 521.3 562.8 524.5C581.7 527.7 600.3 533.3 619 526.7C637.7 520 656.3 501 675 497.5C693.7 494 712.3 506 731.2 514C750 522 769 526 787.8 528.5C806.7 531 825.3 532 844 525.3C862.7 518.7 881.3 504.3 890.7 497.2L900 490L900 601L890.7 601C881.3 601 862.7 601 844 601C825.3 601 806.7 601 787.8 601C769 601 750 601 731.2 601C712.3 601 693.7 601 675 601C656.3 601 637.7 601 619 601C600.3 601 581.7 601 562.8 601C544 601 525 601 506.2 601C487.3 601 468.7 601 450 601C431.3 601 412.7 601 394 601C375.3 601 356.7 601 337.8 601C319 601 300 601 281.2 601C262.3 601 243.7 601 225 601C206.3 601 187.7 601 169 601C150.3 601 131.7 601 112.8 601C94 601 75 601 56.2 601C37.3 601 18.7 601 9.3 601L0 601Z" fill="#FCAF3C" stroke-linecap="round" stroke-linejoin="miter"></path></svg>